<?xml version="1.0" encoding="UTF-8"?><svg xmlns="http://www.w3.org/2000/svg" xmlns:xlink="http://www.w3.org/1999/xlink" contentScriptType="text/ecmascript" width="375pt" zoomAndPan="magnify" contentStyleType="text/css" viewBox="0 0 375 374.999991" height="374.999991pt" preserveAspectRatio="xMidYMid meet" version="1.2"><defs><clipPath xml:id="clip1" id="clip1"><path d="M 69.253906 37.5 L 305 37.5 L 305 321 L 69.253906 321 Z M 69.253906 37.5 "/></clipPath></defs><g xml:id="surface1" id="surface1"><path style=" stroke:none;fill-rule:nonzero;fill:rgb(95.689392%,95.689392%,95.689392%);fill-opacity:1;" d="M 140.542969 318.921875 C 139.582031 311.945312 138.828125 283.738281 139.183594 280.5 C 139.261719 279.820312 139.339844 279.171875 139.414062 278.554688 C 140.148438 272.617188 140.726562 267.925781 132.964844 263.398438 C 129.464844 261.355469 125.578125 261.09375 122.589844 261.09375 C 120.929688 261.09375 119.253906 261.1875 117.632812 261.277344 C 116.027344 261.367188 114.515625 261.453125 113.039062 261.453125 C 111.511719 261.453125 110.234375 261.359375 109.132812 261.160156 C 102.347656 259.9375 97.058594 255.671875 93.832031 248.808594 C 92.367188 245.6875 92.261719 242.011719 92.148438 238.117188 C 92.007812 233.347656 91.863281 228.414062 89.140625 224.117188 C 88.878906 223.707031 88.621094 223.332031 88.375 222.980469 C 87.429688 221.628906 87.429688 221.628906 87.875 220.894531 C 88.050781 220.605469 88.324219 220.273438 88.617188 219.921875 C 89.59375 218.742188 91.070312 216.957031 90.480469 214.347656 C 89.976562 212.101562 88.058594 210.984375 86.65625 210.167969 C 86.089844 209.839844 85.230469 209.339844 85.0625 209.042969 C 84.722656 208.433594 85.5 206.660156 86.015625 205.488281 C 86.429688 204.542969 86.855469 203.570312 87.074219 202.613281 C 87.539062 200.605469 88.625 195.910156 85.78125 193.226562 C 84.078125 191.621094 81.675781 191.035156 79.558594 190.523438 C 78.351562 190.230469 77.210938 189.953125 76.40625 189.550781 C 71.835938 187.230469 72.015625 185.015625 72.074219 184.289062 C 72.363281 180.722656 73.742188 178.621094 75.828125 175.441406 L 76.058594 175.089844 C 78.5625 171.265625 81.054688 167.789062 83.691406 164.113281 C 84.792969 162.574219 85.90625 161.019531 87.035156 159.425781 C 90.628906 154.328125 92.617188 150.5 93.101562 147.714844 C 93.535156 145.230469 92.980469 142.898438 92.488281 140.84375 C 92.238281 139.792969 92.003906 138.800781 91.902344 137.851562 C 91.375 132.921875 93.167969 127.839844 94.90625 122.929688 C 95.351562 121.675781 95.792969 120.425781 96.195312 119.191406 C 98.710938 111.4375 101.324219 104.863281 104.175781 99.09375 C 107.679688 92.011719 111.988281 85.210938 116.632812 79.417969 C 126.484375 67.140625 139.304688 57.011719 153.714844 50.132812 C 167.5 43.550781 183.09375 41.421875 193.632812 40.390625 C 197.257812 40.035156 200.933594 39.859375 204.546875 39.859375 C 238.945312 39.859375 269.710938 56.003906 286.851562 83.046875 C 293.003906 92.75 297.167969 102.21875 299.96875 112.851562 C 302.363281 121.957031 302.773438 132.351562 301.121094 142.121094 C 298.101562 160 288.347656 174.203125 278.027344 189.246094 C 271.046875 199.414062 263.832031 209.925781 258.96875 221.613281 C 250.707031 241.457031 249.839844 294.738281 253.785156 318.921875 L 140.542969 318.921875 "/><g clip-rule="nonzero" clip-path="url(#clip1)"><path style=" stroke:none;fill-rule:nonzero;fill:rgb(1.568604%,2.349854%,2.349854%);fill-opacity:1;" d="M 204.546875 37.511719 C 200.847656 37.511719 197.125 37.691406 193.402344 38.054688 C 179.546875 39.40625 165.367188 41.964844 152.707031 48.007812 C 138.015625 55.023438 125.03125 65.203125 114.8125 77.945312 C 109.921875 84.039062 105.546875 91.039062 102.078125 98.046875 C 98.832031 104.617188 96.234375 111.496094 93.96875 118.460938 C 91.929688 124.742188 88.847656 131.328125 89.578125 138.097656 C 89.902344 141.171875 91.339844 144.179688 90.796875 147.308594 C 90.21875 150.617188 86.988281 155.425781 85.125 158.066406 C 81.335938 163.433594 77.703125 168.300781 74.105469 173.796875 C 71.796875 177.316406 70.089844 179.789062 69.738281 184.097656 C 69.445312 187.777344 72.398438 190.144531 75.355469 191.648438 C 77.9375 192.953125 82.074219 192.957031 84.179688 194.941406 C 85.941406 196.601562 85.269531 200.027344 84.796875 202.082031 C 84.242188 204.460938 81.699219 207.820312 83.023438 210.191406 C 84.09375 212.113281 87.695312 212.609375 88.199219 214.867188 C 88.667969 216.929688 86.820312 218.128906 85.878906 219.671875 C 84.371094 222.152344 85.789062 223.203125 87.164062 225.375 C 91.648438 232.445312 88.152344 242.21875 91.714844 249.808594 C 95.085938 256.976562 100.792969 262.046875 108.722656 263.472656 C 110.097656 263.722656 111.546875 263.804688 113.039062 263.804688 C 116.140625 263.804688 119.417969 263.441406 122.589844 263.441406 C 125.882812 263.441406 129.054688 263.832031 131.789062 265.425781 C 138.910156 269.582031 137.636719 273.191406 136.855469 280.238281 C 136.527344 283.226562 137.285156 319.011719 138.703125 321.273438 L 256.585938 321.273438 C 252.257812 299.59375 252.582031 243.046875 261.125 222.523438 C 272.835938 194.390625 298.179688 173.558594 303.429688 142.511719 C 305.082031 132.742188 304.757812 121.867188 302.230469 112.253906 C 299.324219 101.222656 295.011719 91.546875 288.828125 81.785156 C 270.234375 52.449219 238.15625 37.507812 204.546875 37.511719 Z M 204.550781 42.207031 C 220.753906 42.207031 236.539062 45.882812 250.203125 52.835938 C 264.628906 60.179688 276.296875 70.769531 284.875 84.308594 C 290.890625 93.800781 294.96875 103.0625 297.707031 113.453125 C 299.984375 122.113281 300.390625 132.417969 298.816406 141.726562 C 295.878906 159.09375 286.273438 173.09375 276.101562 187.914062 C 269.054688 198.175781 261.769531 208.792969 256.808594 220.707031 C 248.71875 240.148438 247.574219 291 251.070312 316.574219 L 142.625 316.574219 C 141.785156 307.566406 141.257812 283.582031 141.507812 280.761719 C 141.582031 280.089844 141.664062 279.453125 141.734375 278.84375 C 142.472656 272.859375 143.242188 266.671875 134.136719 261.363281 C 130.152344 259.042969 125.875 258.742188 122.589844 258.742188 C 120.867188 258.742188 119.152344 258.839844 117.5 258.933594 C 115.929688 259.019531 114.453125 259.105469 113.039062 259.105469 C 111.652344 259.105469 110.507812 259.019531 109.546875 258.847656 C 101.957031 257.480469 97.960938 252.089844 95.949219 247.808594 C 94.695312 245.128906 94.59375 241.691406 94.484375 238.046875 C 94.34375 233.195312 94.183594 227.699219 91.113281 222.851562 C 90.816406 222.382812 90.535156 221.984375 90.289062 221.628906 L 90.273438 221.605469 L 90.417969 221.425781 C 91.453125 220.171875 93.609375 217.570312 92.765625 213.832031 C 92.035156 210.582031 89.402344 209.050781 87.828125 208.136719 C 87.738281 208.085938 87.632812 208.023438 87.523438 207.960938 C 87.703125 207.464844 87.96875 206.855469 88.15625 206.433594 C 88.613281 205.390625 89.082031 204.316406 89.355469 203.144531 C 89.863281 200.949219 91.210938 195.121094 87.382812 191.515625 C 85.230469 189.480469 82.390625 188.792969 80.105469 188.242188 C 79.078125 187.992188 78.019531 187.734375 77.46875 187.453125 C 76.28125 186.855469 74.308594 185.667969 74.402344 184.480469 C 74.648438 181.515625 75.761719 179.8125 77.785156 176.730469 L 78.011719 176.378906 C 80.492188 172.597656 82.96875 169.140625 85.589844 165.484375 C 86.695312 163.941406 87.8125 162.382812 88.941406 160.785156 C 92.796875 155.324219 94.851562 151.300781 95.40625 148.117188 C 95.921875 145.152344 95.28125 142.460938 94.765625 140.296875 C 94.535156 139.320312 94.3125 138.402344 94.226562 137.597656 C 93.757812 133.203125 95.386719 128.59375 97.113281 123.71875 C 97.550781 122.480469 98.003906 121.195312 98.417969 119.917969 C 100.902344 112.277344 103.46875 105.804688 106.273438 100.140625 C 109.699219 93.210938 113.914062 86.550781 118.460938 80.886719 C 128.089844 68.886719 140.625 58.984375 154.71875 52.25 C 164.957031 47.363281 177.394531 44.335938 193.859375 42.730469 C 197.410156 42.382812 201.003906 42.207031 204.546875 42.207031 L 204.550781 42.207031 "/></g><path style=" stroke:none;fill-rule:nonzero;fill:rgb(63.529968%,80.778503%,93.728638%);fill-opacity:1;" d="M 193.578125 203.148438 C 166.875 182.648438 148.222656 162.382812 138.121094 142.890625 C 127.730469 122.851562 128.957031 108.46875 131.816406 99.933594 C 136.269531 86.648438 148.171875 77.714844 161.4375 77.714844 C 162.4375 77.714844 163.445312 77.773438 164.433594 77.875 C 178.691406 79.40625 187.042969 94.796875 191.535156 107.4375 L 194.105469 114.675781 L 196.671875 107.4375 C 201.160156 94.796875 209.5 79.40625 223.769531 77.875 C 224.757812 77.773438 225.761719 77.714844 226.761719 77.714844 C 239.792969 77.714844 251.488281 86.480469 255.855469 99.519531 C 258.710938 108.039062 259.914062 122.421875 249.429688 142.558594 C 239.234375 162.144531 220.445312 182.527344 193.578125 203.148438 "/><path style=" stroke:none;fill-rule:nonzero;fill:rgb(1.568604%,2.349854%,2.349854%);fill-opacity:1;" d="M 226.761719 74.980469 C 225.667969 74.980469 224.570312 75.039062 223.484375 75.152344 C 207.535156 76.859375 198.597656 93.84375 194.105469 106.519531 C 189.597656 93.84375 180.660156 76.859375 164.722656 75.152344 C 163.628906 75.035156 162.535156 74.980469 161.4375 74.980469 C 127.542969 74.984375 93.1875 130.148438 193.066406 206.199219 L 194.09375 206.199219 C 293.984375 130.140625 260.582031 74.980469 226.761719 74.980469 Z M 161.441406 74.980469 L 161.441406 80.457031 C 162.34375 80.457031 163.253906 80.503906 164.140625 80.597656 C 176.992188 81.976562 184.734375 96.457031 188.964844 108.359375 L 194.109375 122.832031 L 199.246094 108.355469 C 203.464844 96.453125 211.195312 81.976562 224.058594 80.597656 C 224.949219 80.503906 225.859375 80.457031 226.761719 80.457031 C 238.621094 80.457031 249.273438 88.46875 253.269531 100.390625 C 255.953125 108.40625 257.050781 122.007812 247.011719 141.289062 C 237.210938 160.117188 219.242188 179.753906 193.578125 199.691406 C 168.082031 179.878906 150.246094 160.355469 140.542969 141.628906 C 130.59375 122.445312 131.710938 108.84375 134.402344 100.8125 C 138.480469 88.640625 149.34375 80.457031 161.4375 80.457031 L 161.441406 74.980469 "/></g></svg>